<mxfile host="Electron" modified="2024-09-09T10:52:16.971Z" agent="Mozilla/5.0 (Windows NT 10.0; Win64; x64) AppleWebKit/537.36 (KHTML, like Gecko) draw.io/22.1.11 Chrome/114.0.5735.289 Electron/25.9.8 Safari/537.36" etag="05KVnaaPlrpxUJxOP4Og" version="22.1.11" type="device">
  <diagram name="第 1 页" id="0IEI_BoTUsSnZ7O2o4PN">
    <mxGraphModel dx="794" dy="519" grid="1" gridSize="10" guides="1" tooltips="1" connect="1" arrows="1" fold="1" page="1" pageScale="1" pageWidth="827" pageHeight="1169" math="0" shadow="0">
      <root>
        <mxCell id="0" />
        <mxCell id="1" parent="0" />
        <mxCell id="AjEExTbRafSLeKkOGlqc-3" value="" style="group" vertex="1" connectable="0" parent="1">
          <mxGeometry x="160" y="240" width="120" height="70" as="geometry" />
        </mxCell>
        <mxCell id="AjEExTbRafSLeKkOGlqc-1" value="" style="rounded=0;whiteSpace=wrap;html=1;fillColor=none;" vertex="1" parent="AjEExTbRafSLeKkOGlqc-3">
          <mxGeometry width="80" height="40" as="geometry" />
        </mxCell>
        <mxCell id="AjEExTbRafSLeKkOGlqc-2" value="" style="rounded=0;whiteSpace=wrap;html=1;fillColor=none;" vertex="1" parent="AjEExTbRafSLeKkOGlqc-3">
          <mxGeometry x="60" width="20" height="40" as="geometry" />
        </mxCell>
        <mxCell id="AjEExTbRafSLeKkOGlqc-4" value="DATA" style="rounded=0;whiteSpace=wrap;html=1;fillColor=none;" vertex="1" parent="AjEExTbRafSLeKkOGlqc-3">
          <mxGeometry width="60" height="40" as="geometry" />
        </mxCell>
        <mxCell id="AjEExTbRafSLeKkOGlqc-20" value="&lt;font style=&quot;font-size: 16px;&quot;&gt;链表节点&lt;/font&gt;" style="text;html=1;strokeColor=none;fillColor=none;align=center;verticalAlign=middle;whiteSpace=wrap;rounded=0;" vertex="1" parent="AjEExTbRafSLeKkOGlqc-3">
          <mxGeometry y="40" width="80" height="30" as="geometry" />
        </mxCell>
        <mxCell id="AjEExTbRafSLeKkOGlqc-6" value="" style="group" vertex="1" connectable="0" parent="1">
          <mxGeometry x="280" y="240" width="120" height="60" as="geometry" />
        </mxCell>
        <mxCell id="AjEExTbRafSLeKkOGlqc-7" value="" style="rounded=0;whiteSpace=wrap;html=1;fillColor=none;" vertex="1" parent="AjEExTbRafSLeKkOGlqc-6">
          <mxGeometry width="80" height="40" as="geometry" />
        </mxCell>
        <mxCell id="AjEExTbRafSLeKkOGlqc-8" value="" style="rounded=0;whiteSpace=wrap;html=1;fillColor=none;" vertex="1" parent="AjEExTbRafSLeKkOGlqc-6">
          <mxGeometry x="60" width="20" height="40" as="geometry" />
        </mxCell>
        <mxCell id="AjEExTbRafSLeKkOGlqc-9" value="" style="rounded=0;whiteSpace=wrap;html=1;fillColor=none;" vertex="1" parent="AjEExTbRafSLeKkOGlqc-6">
          <mxGeometry width="60" height="40" as="geometry" />
        </mxCell>
        <mxCell id="AjEExTbRafSLeKkOGlqc-10" value="" style="group" vertex="1" connectable="0" parent="1">
          <mxGeometry x="400" y="240" width="120" height="60" as="geometry" />
        </mxCell>
        <mxCell id="AjEExTbRafSLeKkOGlqc-11" value="" style="rounded=0;whiteSpace=wrap;html=1;fillColor=none;" vertex="1" parent="AjEExTbRafSLeKkOGlqc-10">
          <mxGeometry width="80" height="40" as="geometry" />
        </mxCell>
        <mxCell id="AjEExTbRafSLeKkOGlqc-18" style="edgeStyle=orthogonalEdgeStyle;rounded=0;orthogonalLoop=1;jettySize=auto;html=1;exitX=1;exitY=0.5;exitDx=0;exitDy=0;" edge="1" parent="AjEExTbRafSLeKkOGlqc-10" source="AjEExTbRafSLeKkOGlqc-12">
          <mxGeometry relative="1" as="geometry">
            <mxPoint x="120" y="20" as="targetPoint" />
          </mxGeometry>
        </mxCell>
        <mxCell id="AjEExTbRafSLeKkOGlqc-12" value="" style="rounded=0;whiteSpace=wrap;html=1;fillColor=none;" vertex="1" parent="AjEExTbRafSLeKkOGlqc-10">
          <mxGeometry x="60" width="20" height="40" as="geometry" />
        </mxCell>
        <mxCell id="AjEExTbRafSLeKkOGlqc-13" value="" style="rounded=0;whiteSpace=wrap;html=1;fillColor=none;" vertex="1" parent="AjEExTbRafSLeKkOGlqc-10">
          <mxGeometry width="60" height="40" as="geometry" />
        </mxCell>
        <mxCell id="AjEExTbRafSLeKkOGlqc-15" value="" style="endArrow=classic;html=1;rounded=0;" edge="1" parent="1">
          <mxGeometry width="50" height="50" relative="1" as="geometry">
            <mxPoint x="180" y="200" as="sourcePoint" />
            <mxPoint x="180" y="240" as="targetPoint" />
          </mxGeometry>
        </mxCell>
        <mxCell id="AjEExTbRafSLeKkOGlqc-16" style="edgeStyle=orthogonalEdgeStyle;rounded=0;orthogonalLoop=1;jettySize=auto;html=1;exitX=1;exitY=0.5;exitDx=0;exitDy=0;entryX=0;entryY=0.5;entryDx=0;entryDy=0;" edge="1" parent="1" source="AjEExTbRafSLeKkOGlqc-2" target="AjEExTbRafSLeKkOGlqc-9">
          <mxGeometry relative="1" as="geometry" />
        </mxCell>
        <mxCell id="AjEExTbRafSLeKkOGlqc-17" style="edgeStyle=orthogonalEdgeStyle;rounded=0;orthogonalLoop=1;jettySize=auto;html=1;exitX=1;exitY=0.5;exitDx=0;exitDy=0;entryX=0;entryY=0.5;entryDx=0;entryDy=0;" edge="1" parent="1" source="AjEExTbRafSLeKkOGlqc-8" target="AjEExTbRafSLeKkOGlqc-13">
          <mxGeometry relative="1" as="geometry" />
        </mxCell>
        <mxCell id="AjEExTbRafSLeKkOGlqc-19" value="&lt;font size=&quot;1&quot; face=&quot;Times New Roman&quot; style=&quot;&quot;&gt;&lt;b style=&quot;font-size: 18px;&quot;&gt;head&lt;/b&gt;&lt;/font&gt;" style="text;html=1;strokeColor=none;fillColor=none;align=center;verticalAlign=middle;whiteSpace=wrap;rounded=0;" vertex="1" parent="1">
          <mxGeometry x="120" y="190" width="60" height="30" as="geometry" />
        </mxCell>
        <mxCell id="AjEExTbRafSLeKkOGlqc-21" value="&lt;font size=&quot;1&quot; face=&quot;Times New Roman&quot; style=&quot;&quot;&gt;&lt;b style=&quot;font-size: 18px;&quot;&gt;last&lt;/b&gt;&lt;/font&gt;" style="text;html=1;strokeColor=none;fillColor=none;align=center;verticalAlign=middle;whiteSpace=wrap;rounded=0;" vertex="1" parent="1">
          <mxGeometry x="390" y="190" width="60" height="30" as="geometry" />
        </mxCell>
        <mxCell id="AjEExTbRafSLeKkOGlqc-22" value="" style="endArrow=classic;html=1;rounded=0;entryX=0.75;entryY=0;entryDx=0;entryDy=0;" edge="1" parent="1" target="AjEExTbRafSLeKkOGlqc-13">
          <mxGeometry width="50" height="50" relative="1" as="geometry">
            <mxPoint x="445" y="200" as="sourcePoint" />
            <mxPoint x="190" y="250" as="targetPoint" />
          </mxGeometry>
        </mxCell>
      </root>
    </mxGraphModel>
  </diagram>
</mxfile>
